<?xml version="1.0" encoding="UTF-8" standalone="no"?>
<!DOCTYPE svg PUBLIC "-//W3C//DTD SVG 20010904//EN"
              "http://www.w3.org/TR/2001/REC-SVG-20010904/DTD/svg10.dtd">

<svg xmlns="http://www.w3.org/2000/svg"
     width="4.91667in" height="3.27083in"
     viewBox="0 0 472 314">
  <path id="Sin nombre"
        fill="none" stroke="black" stroke-width="1"
        d="M 50.00,216.00
           C 50.00,216.00 23.00,153.50 21.00,152.00
             21.00,152.00 13.00,133.00 33.50,120.50
             33.50,120.50 146.00,74.00 143.00,70.00
             143.00,70.00 160.00,65.00 157.50,48.50
             157.50,48.50 156.00,40.50 173.50,37.50
             173.50,37.50 203.00,38.00 203.00,38.00
             203.00,38.00 214.00,28.50 214.00,28.50
             214.00,28.50 239.50,-5.50 267.00,29.50
             267.00,29.50 269.50,45.50 285.50,41.00
             285.50,41.00 416.50,48.50 418.00,50.50
             418.00,50.50 478.50,71.50 428.00,107.00
             428.00,107.00 413.00,119.00 417.50,118.50
             417.50,118.50 397.50,164.50 399.00,168.00
             399.00,168.00 389.50,191.00 418.50,191.00
             418.50,191.00 452.50,193.00 432.50,223.50
             432.50,223.50 432.50,246.00 412.00,245.50
             412.00,245.50 342.50,241.00 329.00,241.00
             329.00,241.00 298.50,229.00 302.50,221.00
             302.50,221.00 275.50,171.00 274.50,168.50
             274.50,168.50 274.00,156.00 256.50,155.50
             256.50,155.50 223.00,154.00 223.00,154.00
             223.00,154.00 181.50,137.50 218.50,117.50
             218.50,117.50 232.50,109.50 232.50,109.50
             232.50,109.50 260.50,89.00 227.00,78.50
             227.00,78.50 187.00,75.50 187.00,75.50
             187.00,75.50 167.00,71.50 168.50,92.50
             168.50,92.50 155.00,228.50 155.00,228.50
             155.00,228.50 154.00,249.50 172.50,248.00
             172.50,248.00 197.50,252.00 199.00,250.00
             211.45,246.82 215.73,243.69 224.00,246.00
             244.36,251.69 256.32,275.04 236.50,300.00
             232.70,304.79 213.10,298.98 208.00,304.50
             220.50,306.00 146.50,299.00 112.50,296.00
             112.50,296.00 94.00,293.00 86.00,284.00
             86.00,284.00 53.50,220.00 53.50,220.00" />
</svg>
